<svg width="99" height="30" viewBox="0 0 99 30" fill="none" xmlns="http://www.w3.org/2000/svg">
<path d="M84.7019 2.48698C80.4953 3.86296 78.5689 8.06955 80.456 11.883C81.5174 14.0452 83.2473 15.146 87.7683 16.4434C92.4467 17.8194 93.233 18.527 93.233 21.1611C93.233 24.6207 91.0314 26.4684 86.9034 26.4291C84.1122 26.4291 82.3037 25.5249 80.9671 23.5199L80.0628 22.2225V24.9352C80.0628 26.8222 80.1808 27.4906 80.4953 27.1761C80.7705 26.9009 81.5568 26.9402 83.1293 27.294C85.7633 27.923 90.6776 28.0017 92.6826 27.4513C97.4789 26.1146 99.8377 21.1217 97.7934 16.6006C96.6533 14.1239 95.7097 13.5735 89.223 11.7257C85.724 10.7429 84.5839 9.56347 84.8984 7.28327C85.1736 5.27826 86.4317 4.02022 88.6726 3.46983C91.4639 2.80149 93.862 3.50914 95.5918 5.55346L96.9678 7.16533V4.8065V2.40835H95.7097C95.0021 2.40835 92.6433 2.29041 90.481 2.13316C87.4932 1.9759 86.1172 2.05453 84.7019 2.48698Z" fill="white"/>
<path d="M33.3187 3.03728L34.2623 3.78424V14.8707V25.9572L33.3187 26.7042C32.4145 27.4512 32.4538 27.4512 40.4345 27.4512C48.258 27.4512 48.4939 27.4119 50.4989 26.429C54.5089 24.424 56.907 20.2174 56.9464 15.0673C56.9464 13.5341 56.7498 11.5684 56.5139 10.7035C55.9242 8.54121 53.9978 5.74993 52.2287 4.5312C49.3981 2.56551 47.9435 2.29031 39.8841 2.29031C32.4538 2.29031 32.4145 2.29031 33.3187 3.03728ZM45.1915 3.90218C49.516 5.0816 52.0714 10.271 51.6783 17.1116C51.4817 20.6106 50.1057 23.7557 48.1794 25.1317C46.9999 25.9572 43.2258 26.5863 41.1422 26.2718L39.7662 26.0752L39.6483 14.7528L39.5696 3.46973H41.614C42.7541 3.46973 44.3659 3.6663 45.1915 3.90218Z" fill="white"/>
<path d="M58.0464 2.99796C58.8719 3.6663 58.9113 3.82355 58.8719 14.8707C58.8326 25.7607 58.7933 26.1145 58.007 26.7435C57.2208 27.4119 57.5353 27.4512 65.9877 27.4512C74.5189 27.4512 74.8727 27.4119 76.1307 26.547C76.8777 26.0752 77.7819 25.1317 78.2144 24.424C79.1186 22.8908 79.1972 19.7457 78.3323 18.1338C77.5853 16.6792 75.5803 14.9101 74.0471 14.3597L72.9463 14.0058L74.0471 13.2982C76.2487 11.9615 77.3101 10.271 77.3101 8.14808C77.3101 5.51405 76.4452 3.98081 74.4402 3.03728C72.9856 2.40825 71.8062 2.29031 64.9656 2.29031C57.4566 2.29031 57.2208 2.32963 58.0464 2.99796ZM70.5875 4.49189C73.9685 7.32248 72.278 12.8264 67.8355 13.5341C66.1057 13.8093 65.3587 14.4776 66.774 14.4776C68.5825 14.4776 70.7447 15.3425 72.1207 16.6399C73.4574 17.8586 73.536 18.0945 73.6933 20.7285C73.8505 23.4805 73.8505 23.5198 72.4745 24.8958C71.3344 26.0359 70.784 26.2718 69.3687 26.3111C67.0099 26.3897 64.6118 26.2718 64.4152 26.1145C64.1793 25.8786 64.3366 4.17738 64.5724 3.78424C64.6904 3.62698 65.8305 3.46973 67.0885 3.46973C68.9756 3.46973 69.6046 3.62698 70.5875 4.49189Z" fill="white"/>
<path d="M4.1082 1.58238C3.71506 2.05414 3.40055 2.84042 3.40055 3.3515C3.40055 3.98052 3.24329 4.17709 2.81084 4.01983C2.06388 3.70532 0.373381 4.80611 0.0588701 5.78896C-0.0590714 6.22141 0.294753 7.59739 0.923775 9.05201C2.49633 12.6296 2.45701 16.7182 0.884461 20.6496C-0.177013 23.3622 -0.216327 23.5195 0.412695 24.463C0.766519 25.0134 1.63142 25.6031 2.33907 25.7997C3.24329 26.0356 3.5578 26.3501 3.47917 26.8219C3.28261 27.844 4.54065 29.0234 5.75938 29.0234C6.34909 29.0234 7.68576 28.6696 8.70792 28.1978C11.6171 26.9005 15.981 26.7432 18.9295 27.844C22.4284 29.1021 23.7258 29.2593 24.6693 28.3944C25.2197 27.9226 25.4163 27.3329 25.3377 26.6253C25.2197 25.7997 25.2984 25.6424 25.8881 25.7997C26.7923 26.0356 28.4435 24.9741 28.758 23.952C28.8759 23.5195 28.5614 22.1435 27.9324 20.6889C26.3598 17.1507 26.3991 13.0227 27.9324 9.13063C28.8366 6.81112 28.9545 6.18209 28.5614 5.47445C28.0896 4.57023 26.3598 3.70532 25.7701 4.09846C25.5736 4.2164 25.4163 3.78395 25.4163 3.15493C25.4163 0.756784 23.0968 0.0491371 20.1876 1.58238C19.0081 2.2114 17.5928 2.4866 15.1947 2.60454C12.2462 2.76179 11.4992 2.64385 9.25831 1.73963C6.1132 0.481588 4.9731 0.481588 4.1082 1.58238ZM12.5607 11.6074C13.229 12.1185 14.1725 12.5116 14.605 12.5116C15.0374 12.5116 17.1997 11.0177 19.3227 9.20926C21.4849 7.40083 23.3327 5.94621 23.372 6.02484C23.4506 6.10347 21.996 7.99053 20.1482 10.1921C18.3005 12.433 16.7673 14.5559 16.7673 14.9098C16.7673 15.3029 18.1826 17.3079 19.9517 19.3915C21.7208 21.4752 23.0575 23.2443 22.9788 23.3622C22.8609 23.4409 21.2097 22.1828 19.2833 20.571C17.357 18.9198 15.3913 17.5045 14.8802 17.3865C13.858 17.1113 13.2683 17.4652 9.14037 20.8855C7.41056 22.3401 5.91663 23.4409 5.83801 23.3229C5.75938 23.2443 7.09605 21.5145 8.86517 19.5095C11.0667 16.9934 12.0496 15.5781 12.0496 14.8705C12.0496 14.1628 11.0274 12.7082 8.70792 10.0742C6.86017 7.99053 5.36624 6.18209 5.36624 6.02484C5.36624 5.9069 6.70291 6.88974 8.35409 8.26573C9.96596 9.64171 11.853 11.1356 12.5607 11.6074Z" fill="white"/>
</svg>
