<svg width="278" height="185" viewBox="0 0 278 185" fill="none" xmlns="http://www.w3.org/2000/svg">
<g clip-path="url(#clip0_10_20828)">
<g filter="url(#filter0_f_10_20828)">
<path d="M239.192 246.862L-25.515 -107.123L51.5544 -153.063L253.948 237.195L239.192 246.862Z" fill="url(#paint0_linear_10_20828)" fill-opacity="0.5"/>
</g>
<g filter="url(#filter1_f_10_20828)">
<path d="M393.726 285.926L-46.0001 -52.3956L31.6145 -134L408.291 269.248L393.726 285.926Z" fill="url(#paint1_linear_10_20828)" fill-opacity="0.5"/>
</g>
<path d="M19.0211 152.798V-21.8291M37.3105 152.798V-21.8291M55.6 152.798V-21.8291M73.8895 152.798V-21.8291M92.1789 152.798V-21.8291M110.468 152.798V-21.8291M128.758 152.798V-21.8291M147.047 152.798V-21.8291M128.758 161.53V-13.0977M183.626 152.798V-21.8291M201.916 152.798V-21.8291M220.205 152.798V-21.8291M238.495 152.798V-21.8291M256.784 152.798V-21.8291M276.537 125.149H6.39567e-06M276.537 106.959H5.59621e-06M276.537 88.7682H4.79675e-06M276.537 70.5779H3.99729e-06M276.537 52.3875H3.19783e-06M276.537 34.1972H2.39837e-06M276.537 16.0068H1.59892e-06M276.537 -2.18353H7.99462e-07M276.537 -20.3739L0 -20.3739" stroke="url(#paint2_linear_10_20828)" stroke-opacity="0.15" stroke-width="0.731579" stroke-dasharray="0.72 0.72"/>
<g filter="url(#filter2_f_10_20828)">
<path d="M154.723 188.254L-87.3449 -135.457L-16.8669 -177.468L168.216 179.413L154.723 188.254Z" fill="url(#paint3_linear_10_20828)" fill-opacity="0.5"/>
</g>
<path d="M140.854 81.002C133.753 81.002 127.997 86.7581 127.997 93.8591C127.997 100.96 133.753 106.716 140.854 106.716C147.955 106.716 153.711 100.96 153.711 93.8591C153.711 86.7581 147.955 81.002 140.854 81.002ZM144.415 103.508C143.157 103.975 142.476 102.522 143.425 101.573V101.573L144.178 100.82C144.519 100.479 144.711 100.017 144.711 99.5345L144.711 99.002C144.711 98.2919 144.135 97.7162 143.425 97.7162L143.049 97.7162C142.546 97.7162 142.139 97.3092 142.139 96.8071V96.8071C142.139 96.566 142.044 96.3347 141.873 96.1642L141.497 95.7877C141.085 95.3761 140.527 95.1448 139.945 95.1448L139.724 95.1448C138.218 95.1448 136.997 96.3659 136.997 97.8722V97.8722C136.997 98.5956 137.284 99.2893 137.795 99.8008L139.098 101.104C139.399 101.404 139.568 101.812 139.568 102.238V102.238C139.568 103.203 138.715 103.959 137.793 103.671C134.09 102.514 131.278 99.3212 130.684 95.4057C130.598 94.8395 131.26 94.5515 131.665 94.9565V94.9565C131.786 95.0771 131.95 95.1448 132.12 95.1448L133.139 95.1448C133.85 95.1448 134.425 94.5692 134.425 93.8591V93.8591C134.425 93.149 135.001 92.5734 135.711 92.5734L136.243 92.5734C136.726 92.5734 137.188 92.3818 137.529 92.0408L140.321 89.2488C140.662 88.9078 140.854 88.4453 140.854 87.9631V87.9631C140.854 86.9589 140.04 86.1448 139.035 86.1448V86.1448C138.553 86.1448 138.091 85.9532 137.75 85.6123L137.139 85.0015C137.048 84.9103 136.997 84.7866 136.997 84.6577V84.6577C136.997 84.4599 137.116 84.2808 137.301 84.2121C139.344 83.4551 141.568 83.3727 143.65 83.9649C144.303 84.1506 144.711 84.7744 144.711 85.4532V85.4532C144.711 85.896 144.535 86.3207 144.222 86.6338L144.068 86.7877C143.656 87.1993 143.425 87.7576 143.425 88.3397L143.425 89.4694C143.425 89.8104 143.561 90.1374 143.802 90.3785V90.3785C144.304 90.8806 145.118 90.8806 145.62 90.3785L147.256 88.7427C148.05 87.948 149.373 88.0037 149.904 88.9941C150.027 89.2227 150.141 89.456 150.246 89.6934C150.592 90.476 149.966 91.2877 149.11 91.2877V91.2877C148.763 91.2877 148.43 91.4256 148.185 91.6711L146.906 92.95C146.324 93.5321 145.997 94.3216 145.997 95.1448L145.997 95.5214C145.997 96.1035 146.228 96.6618 146.639 97.0734V97.0734C147.051 97.485 147.609 97.7162 148.191 97.7162L149.659 97.7162C149.784 97.7162 149.903 97.7658 149.991 97.8539V97.8539C150.13 97.9923 150.169 98.2025 150.083 98.3782C148.924 100.734 146.894 102.587 144.415 103.508Z" fill="url(#paint4_linear_10_20828)"/>
<path fill-rule="evenodd" clip-rule="evenodd" d="M108.438 102.207V85.4423C108.438 85.0698 108.624 84.7904 108.996 84.6041L110.393 83.7657C110.58 83.5795 110.859 83.4864 111.232 83.4864C111.977 81.4373 113.001 79.3883 114.305 77.3392C114.119 77.3392 114.026 77.2461 114.026 77.0599L113.746 75.3832C113.56 75.0107 113.653 74.6382 114.026 74.2657L121.011 67.2803C121.384 66.9077 121.756 66.8145 122.129 67.0008L123.805 67.2803C123.805 67.4666 123.899 67.5596 124.085 67.5596C125.016 67.0008 125.948 66.442 126.879 65.8832L127.438 64.2066C127.624 63.834 127.904 63.5547 128.276 63.3684L132.747 62.2508C133.119 62.0645 133.492 62.1576 133.864 62.5302L134.703 63.3684C135.82 63.1821 137.031 62.9958 138.335 62.8095C138.335 62.6232 138.428 62.3439 138.615 61.9713L139.732 60.8537C140.105 60.6675 140.477 60.5742 140.85 60.5742L157.056 65.045C157.428 65.045 157.615 65.3244 157.615 65.8832L158.174 67.2803C158.174 67.6528 158.08 67.9322 157.894 68.1185C160.502 69.795 162.737 71.8441 164.6 74.2657C164.786 74.0794 165.066 73.9862 165.438 73.9862L167.115 74.2657C167.488 74.452 167.767 74.7313 167.953 75.1039L173.542 90.7511C173.728 91.1237 173.728 91.4963 173.542 91.8689L172.424 92.9866C172.238 93.3592 171.958 93.5453 171.586 93.5453C171.586 93.5453 171.586 93.6386 171.586 93.8248C171.586 100.251 169.63 106.398 165.997 111.707L166.277 112.825C166.277 113.198 166.184 113.57 165.997 113.943L158.733 120.928C158.546 121.301 158.267 121.394 157.894 121.208L156.218 120.928C156.218 120.928 156.125 120.835 155.938 120.649C152.585 122.698 148.953 124.002 145.041 124.561L144.203 125.958C144.017 126.33 143.737 126.517 143.365 126.517H138.615C138.242 126.517 137.963 126.33 137.776 125.958L136.938 124.561C134.33 124.374 131.908 123.815 129.673 122.884C129.487 123.257 129.207 123.443 128.835 123.443L127.158 124.002C126.786 124.188 126.506 124.095 126.32 123.722L113.467 113.104C113.094 112.918 113.001 112.546 113.188 111.987L113.467 110.59C113.467 110.217 113.56 109.938 113.746 109.752C112.815 107.889 111.977 106.026 111.232 104.163C110.859 104.163 110.58 104.07 110.393 103.884L108.996 103.046C108.624 102.859 108.438 102.58 108.438 102.207ZM114.585 77.3392V77.6187C113.281 79.4815 112.256 81.5304 111.511 83.7657V84.0453H111.232C111.045 83.859 110.766 83.859 110.393 84.0453L108.996 84.8835C108.81 85.0698 108.717 85.2561 108.717 85.4423V102.207C108.717 102.394 108.81 102.58 108.996 102.766L110.393 103.604C110.766 103.791 111.045 103.791 111.232 103.604H111.511V103.884C112.256 105.933 113.188 107.889 114.305 109.752L114.026 110.031C113.84 110.031 113.746 110.217 113.746 110.59L113.467 111.987C113.281 112.359 113.374 112.639 113.746 112.825L126.32 123.443C126.693 123.629 126.972 123.722 127.158 123.722L128.835 123.164C129.021 123.164 129.207 122.977 129.394 122.605C131.815 123.536 134.423 124.095 137.217 124.281L138.056 125.678C138.056 126.051 138.242 126.237 138.615 126.237H143.365C143.551 126.237 143.737 126.051 143.923 125.678L145.041 124.281C148.953 123.722 152.585 122.418 155.938 120.369H156.218C156.218 120.369 156.218 120.462 156.218 120.649L157.894 120.928C158.267 120.928 158.546 120.835 158.733 120.649L165.718 113.663C165.904 113.477 165.997 113.198 165.997 112.825L165.718 111.428C169.35 106.399 171.306 100.251 171.306 93.8248C171.306 93.6386 171.306 93.4522 171.306 93.266C171.679 93.266 171.958 93.1729 172.144 92.9866L173.262 91.5895C173.448 91.4033 173.448 91.1237 173.262 90.7511L167.674 75.1039C167.487 74.9176 167.301 74.8246 167.115 74.8246L165.438 74.2657C165.066 74.2657 164.786 74.3588 164.6 74.545V74.8246L164.321 74.545C162.458 72.1234 160.223 70.0743 157.615 68.3978V68.1185C157.801 67.9322 157.894 67.7459 157.894 67.5596L157.335 65.8832C157.335 65.5106 157.149 65.3243 156.777 65.3243L140.85 60.8537C140.477 60.8537 140.198 60.9468 140.012 61.1331L138.894 62.2508C138.708 62.4371 138.615 62.7165 138.615 63.089L138.335 63.3684C137.217 63.3684 136.007 63.4616 134.703 63.6479L133.585 62.8095C133.399 62.6232 133.119 62.5302 132.747 62.5302L128.276 63.6479C128.09 63.8342 127.903 64.0203 127.717 64.2066L127.158 65.8832C127.158 65.8832 127.158 65.9763 127.158 66.1625C126.041 66.7214 125.016 67.2803 124.085 67.8391H123.805C123.805 67.8391 123.712 67.7459 123.526 67.5596L122.129 67.2803C121.756 67.2803 121.477 67.3733 121.291 67.5596L114.305 74.545C113.933 74.7313 113.84 75.0107 114.026 75.3832L114.305 76.7803C114.305 76.9666 114.398 77.1529 114.585 77.3392ZM110.952 93.8248C110.952 77.6187 124.085 64.2066 140.291 64.2066C156.497 64.2066 169.63 77.6187 169.63 93.8248C169.63 110.031 156.497 123.164 140.291 123.164C124.085 123.164 110.952 110.031 110.952 93.8248ZM169.35 93.8248C169.35 77.6187 156.218 64.7655 140.291 64.7655C124.085 64.7655 111.232 77.6187 111.232 93.8248C111.232 109.752 124.085 122.884 140.291 122.884C156.218 122.884 169.35 109.752 169.35 93.8248Z" fill="#C8C8C8"/>
<path fill-rule="evenodd" clip-rule="evenodd" d="M162.368 130.426H118.22L96.1465 92.1456L118.22 53.8657H162.368V54.1451L184.442 92.1456L162.368 130.426ZM118.22 130.426H162.089L184.163 92.4251L162.089 54.1451H118.22L96.4259 92.4251L118.22 130.426Z" fill="#C8C8C8"/>
<path d="M92.5115 92.1494L102.85 74.2668C101.546 74.2668 100.242 74.1736 98.938 73.9873L88.5996 92.1494L99.7763 111.709H103.688L92.5115 92.1494Z" fill="url(#paint5_linear_10_20828)"/>
<path d="M187.776 92.1503L177.437 74.2678C178.741 74.2678 180.045 74.1746 181.349 73.9883L191.688 92.1503L180.511 111.709H176.599L187.776 92.1503Z" fill="url(#paint6_linear_10_20828)"/>
<path d="M195.061 68.6787H194.781H172.149V68.9581H194.781L208.752 92.988L195.061 68.6787Z" fill="#C8C8C8"/>
<path d="M84.9689 68.6787H107.602V68.9581H84.9689L71.2775 92.988L84.9689 117.018H108.44H108.719H84.9689L70.998 92.988L84.9689 68.6787Z" fill="#C8C8C8"/>
<path style="mix-blend-mode:screen" opacity="0.2" d="M73.6017 52L51.2282 90.6046L75 132H35.8465L13.0069 92.0001C12.5408 91.535 35.8465 52 35.8465 52H73.6017Z" fill="url(#paint7_linear_10_20828)"/>
<path style="mix-blend-mode:screen" opacity="0.2" d="M204.398 52L226.772 90.6046L203 132H242.154L264.993 92.0001C265.459 91.535 242.154 52 242.154 52H204.398Z" fill="url(#paint8_linear_10_20828)"/>
<path d="M140.291 65.3242V66.7213H140.571V65.3242H140.291Z" fill="#C8C8C8"/>
<path d="M138.615 65.3242L138.895 66.7213V65.3242H138.615Z" fill="#C8C8C8"/>
<path d="M137.221 65.6055L137.5 66.7232V65.6055H137.221Z" fill="#C8C8C8"/>
<path d="M135.82 65.6055L136.1 67.0026V65.6055H135.82Z" fill="#C8C8C8"/>
<path d="M132.744 66.4416L133.303 67.5592L133.024 66.1621L132.744 66.4416Z" fill="#C8C8C8"/>
<path d="M131.35 66.7217L131.908 68.1188H132.188L131.629 66.7217H131.35Z" fill="#C8C8C8"/>
<path d="M129.955 67.2812L130.514 68.3988H130.793L130.235 67.2812H129.955Z" fill="#C8C8C8"/>
<path d="M128.555 67.8379L129.113 68.9555H129.393L128.834 67.8379H128.555Z" fill="#C8C8C8"/>
<path d="M127.16 68.3975L127.998 69.7945V69.5152L127.44 68.3975H127.16Z" fill="#C8C8C8"/>
<path d="M126.041 69.2365L126.6 70.3541H126.879L126.32 68.957L126.041 69.2365Z" fill="#C8C8C8"/>
<path d="M124.646 70.0744L125.485 71.192L125.764 70.9127L124.926 69.7949L124.646 70.0744Z" fill="#C8C8C8"/>
<path d="M123.527 70.9122L124.366 72.0299V71.7504L123.807 70.6328L123.527 70.9122Z" fill="#C8C8C8"/>
<path d="M122.408 71.7501L123.247 72.8678V72.5883L122.408 71.4707V71.7501Z" fill="#C8C8C8"/>
<path d="M121.289 72.8694L122.127 73.7076H122.407L121.289 72.5898V72.8694Z" fill="#C8C8C8"/>
<path d="M120.176 73.7061L121.014 74.8238L121.293 74.5443L120.176 73.7061Z" fill="#C8C8C8"/>
<path d="M119.057 74.8235L120.174 75.6617L119.336 74.5439L119.057 74.8235Z" fill="#C8C8C8"/>
<path d="M118.219 75.9424L119.057 76.7806H119.336L118.219 75.6631V75.9424Z" fill="#C8C8C8"/>
<path d="M117.1 77.0605L118.217 77.8988H118.497L117.379 77.0605H117.1Z" fill="#C8C8C8"/>
<path d="M116.262 78.4563L117.659 79.0151L116.541 78.1768L116.262 78.4563Z" fill="#C8C8C8"/>
<path d="M115.705 79.5742L116.823 80.4126V80.1331L115.705 79.5742Z" fill="#C8C8C8"/>
<path d="M114.867 80.9727L115.985 81.5316L116.264 81.2522L115.147 80.6934L114.867 80.9727Z" fill="#C8C8C8"/>
<path d="M114.305 82.3672L115.422 82.9261L115.702 82.6468L114.305 82.0879V82.3672Z" fill="#C8C8C8"/>
<path d="M113.748 83.7647L114.866 84.3236L115.145 84.0442L113.748 83.4854V83.7647Z" fill="#C8C8C8"/>
<path d="M113.186 85.1622L114.583 85.4417L113.186 84.8828V85.1622Z" fill="#C8C8C8"/>
<path d="M112.91 86.5596L114.028 86.8391V86.5596L112.91 86.2803V86.5596Z" fill="#C8C8C8"/>
<path d="M112.348 87.9571L113.745 88.2366V87.9571L112.627 87.6777L112.348 87.9571Z" fill="#C8C8C8"/>
<path d="M112.072 89.3535L113.469 89.633V89.3535H112.352H112.072Z" fill="#C8C8C8"/>
<path d="M112.072 91.0305H113.469V90.751H112.072V91.0305Z" fill="#C8C8C8"/>
<path d="M111.791 92.428H113.188V92.1484H111.791V92.428Z" fill="#C8C8C8"/>
<path d="M111.791 93.8254H113.188V93.5459H111.791V93.8254Z" fill="#C8C8C8"/>
<path d="M111.791 95.501L113.188 95.2217H111.791V95.501Z" fill="#C8C8C8"/>
<path d="M112.072 96.8985L113.469 96.6191H112.072V96.8985Z" fill="#C8C8C8"/>
<path d="M112.352 98.2959H113.469V98.0166H112.072L112.352 98.2959Z" fill="#C8C8C8"/>
<path d="M112.627 99.9729L113.745 99.6934V99.4141L112.348 99.6934L112.627 99.9729Z" fill="#C8C8C8"/>
<path d="M112.91 101.37L114.028 100.812L112.91 101.091V101.37Z" fill="#C8C8C8"/>
<path d="M113.186 102.768L114.583 102.209L113.186 102.488V102.768Z" fill="#C8C8C8"/>
<path d="M113.748 104.164L115.145 103.605L114.866 103.325L113.748 103.884V104.164Z" fill="#C8C8C8"/>
<path d="M114.305 105.561L115.702 105.002L115.422 104.723L114.305 105.282V105.561Z" fill="#C8C8C8"/>
<path d="M115.147 106.959L116.264 106.12H115.985L114.867 106.679L115.147 106.959Z" fill="#C8C8C8"/>
<path d="M115.705 108.075L116.823 107.516V107.236L115.705 107.795V108.075Z" fill="#C8C8C8"/>
<path d="M116.541 109.473L117.659 108.635V108.355L116.262 109.194L116.541 109.473Z" fill="#C8C8C8"/>
<path d="M117.379 110.588L118.497 109.75H118.217L117.1 110.309L117.379 110.588Z" fill="#C8C8C8"/>
<path d="M118.219 111.707L119.336 110.869H119.057L118.219 111.707Z" fill="#C8C8C8"/>
<path d="M119.336 112.826L120.174 111.988L119.057 112.826H119.336Z" fill="#C8C8C8"/>
<path d="M120.176 113.944L121.293 113.106L121.014 112.826L120.176 113.944Z" fill="#C8C8C8"/>
<path d="M121.289 115.06L122.407 113.942H122.127L121.289 114.781V115.06Z" fill="#C8C8C8"/>
<path d="M122.408 115.898L123.247 115.06V114.78L122.408 115.898Z" fill="#C8C8C8"/>
<path d="M123.807 117.015L124.366 115.898V115.618L123.527 116.736L123.807 117.015Z" fill="#C8C8C8"/>
<path d="M124.926 117.853L125.764 116.736L125.485 116.456L124.646 117.574L124.926 117.853Z" fill="#C8C8C8"/>
<path d="M126.32 118.415L126.879 117.297H126.6L126.041 118.415H126.32Z" fill="#C8C8C8"/>
<path d="M127.44 119.251L127.998 118.133V117.854L127.16 118.971L127.44 119.251Z" fill="#C8C8C8"/>
<path d="M128.834 119.81L129.393 118.692L129.113 118.413L128.555 119.81H128.834Z" fill="#C8C8C8"/>
<path d="M152.028 119.81L151.469 118.413L151.189 118.692L151.748 119.81H152.028Z" fill="#C8C8C8"/>
<path d="M153.422 118.971L152.863 117.854L152.584 118.133L153.143 119.251L153.422 118.971Z" fill="#C8C8C8"/>
<path d="M154.542 118.415L153.983 117.297H153.703L154.542 118.415Z" fill="#C8C8C8"/>
<path d="M155.936 117.574L155.098 116.456V116.736L155.657 117.853L155.936 117.574Z" fill="#C8C8C8"/>
<path d="M157.055 116.736L156.217 115.618V115.898L157.055 117.015V116.736Z" fill="#C8C8C8"/>
<path d="M158.454 115.898L157.615 114.78L157.336 115.06L158.174 115.898H158.454Z" fill="#C8C8C8"/>
<path d="M159.573 114.781L158.455 113.942L159.293 115.06L159.573 114.781Z" fill="#C8C8C8"/>
<path d="M160.411 113.944L159.572 112.826L159.293 113.106L160.411 113.944Z" fill="#C8C8C8"/>
<path d="M161.524 112.826L160.686 111.988H160.406L161.524 112.826Z" fill="#C8C8C8"/>
<path d="M162.647 111.707L161.53 110.869H161.25L162.368 111.707H162.647Z" fill="#C8C8C8"/>
<path d="M163.485 110.309L162.367 109.75H162.088L163.206 110.588L163.485 110.309Z" fill="#C8C8C8"/>
<path d="M164.323 109.194L163.205 108.355L162.926 108.635L164.043 109.473L164.323 109.194Z" fill="#C8C8C8"/>
<path d="M165.161 107.795L163.764 107.236V107.516L164.881 108.075L165.161 107.795Z" fill="#C8C8C8"/>
<path d="M165.717 106.679L164.6 106.12H164.32L165.717 106.959V106.679Z" fill="#C8C8C8"/>
<path d="M166.276 105.282L165.158 104.723V105.002L166.276 105.561V105.282Z" fill="#C8C8C8"/>
<path d="M166.832 103.884L165.715 103.325V103.605L166.832 104.164V103.884Z" fill="#C8C8C8"/>
<path d="M167.393 102.488L166.275 102.209H165.996L167.393 102.768V102.488Z" fill="#C8C8C8"/>
<path d="M167.956 101.091L166.559 100.812L167.676 101.37L167.956 101.091Z" fill="#C8C8C8"/>
<path d="M168.231 99.6934L166.834 99.4141V99.6934L168.231 99.9729V99.6934Z" fill="#C8C8C8"/>
<path d="M168.512 98.0166H167.115V98.2959H168.512V98.0166Z" fill="#C8C8C8"/>
<path d="M168.514 96.6191H167.396L168.514 96.8985V96.6191Z" fill="#C8C8C8"/>
<path d="M168.794 95.2217H167.396L168.794 95.501V95.2217Z" fill="#C8C8C8"/>
<path d="M168.794 93.5459H167.396V93.8254H168.794V93.5459Z" fill="#C8C8C8"/>
<path d="M168.794 92.1484H167.396V92.428H168.794V92.1484Z" fill="#C8C8C8"/>
<path d="M168.514 90.751H167.396V91.0305H168.514V90.751Z" fill="#C8C8C8"/>
<path d="M168.512 89.3535H167.115V89.633L168.512 89.3535Z" fill="#C8C8C8"/>
<path d="M168.231 87.6777L166.834 87.9571V88.2366L168.231 87.9571V87.6777Z" fill="#C8C8C8"/>
<path d="M167.676 86.2803L166.559 86.5596V86.8391L167.956 86.5596L167.676 86.2803Z" fill="#C8C8C8"/>
<path d="M167.393 84.8828L165.996 85.4417H166.275L167.393 85.1622V84.8828Z" fill="#C8C8C8"/>
<path d="M166.832 83.4854L165.715 84.0442V84.3236L166.832 83.7647V83.4854Z" fill="#C8C8C8"/>
<path d="M166.276 82.0879L165.158 82.6468V82.9261L166.276 82.3672V82.0879Z" fill="#C8C8C8"/>
<path d="M165.717 80.6934L164.32 81.2522L164.6 81.5316L165.717 80.9727V80.6934Z" fill="#C8C8C8"/>
<path d="M164.881 79.5742L163.764 80.1331V80.4126L165.161 79.5742H164.881Z" fill="#C8C8C8"/>
<path d="M164.043 78.1768L162.926 79.0151H163.205L164.323 78.4563L164.043 78.1768Z" fill="#C8C8C8"/>
<path d="M163.206 77.0605L162.088 77.8988H162.367L163.485 77.0605H163.206Z" fill="#C8C8C8"/>
<path d="M162.368 75.6631L161.25 76.7806H161.53L162.647 75.9424L162.368 75.6631Z" fill="#C8C8C8"/>
<path d="M161.524 74.5439L160.406 75.6617H160.686L161.524 74.8235V74.5439Z" fill="#C8C8C8"/>
<path d="M160.411 73.7061L159.293 74.5443L159.572 74.8238L160.411 73.7061Z" fill="#C8C8C8"/>
<path d="M159.293 72.5898L158.455 73.7076L159.573 72.8694L159.293 72.5898Z" fill="#C8C8C8"/>
<path d="M158.174 71.4707L157.336 72.5883L157.615 72.8678L158.454 71.7501L158.174 71.4707Z" fill="#C8C8C8"/>
<path d="M157.055 70.6328L156.217 71.7504V72.0299L157.055 70.9122V70.6328Z" fill="#C8C8C8"/>
<path d="M155.657 69.7949L155.098 70.9127V71.192L155.936 70.0744L155.657 69.7949Z" fill="#C8C8C8"/>
<path d="M154.542 68.957L153.703 70.3541H153.983L154.542 69.2365V68.957Z" fill="#C8C8C8"/>
<path d="M153.143 68.3975L152.584 69.5152L152.863 69.7945L153.422 68.3975H153.143Z" fill="#C8C8C8"/>
<path d="M151.748 67.8379L151.189 68.9555H151.469L152.028 67.8379H151.748Z" fill="#C8C8C8"/>
<path d="M150.348 67.2812L149.789 68.3988H150.068L150.627 67.2812H150.348Z" fill="#C8C8C8"/>
<path d="M148.955 66.7217L148.676 68.1188H148.955L149.235 66.7217H148.955Z" fill="#C8C8C8"/>
<path d="M147.555 66.1621L147.275 67.5592H147.555L147.834 66.4416L147.555 66.1621Z" fill="#C8C8C8"/>
<path d="M146.16 65.8838L145.881 67.2809H146.16L146.44 65.8838H146.16Z" fill="#C8C8C8"/>
<path d="M144.76 65.6055L144.48 67.0026H144.76V65.6055Z" fill="#C8C8C8"/>
<path d="M143.086 65.6055V66.7232H143.365V65.6055H143.086Z" fill="#C8C8C8"/>
<path d="M141.691 65.3242V66.7213H141.971V65.3242H141.691Z" fill="#C8C8C8"/>
<path d="M164.327 67.8345L115.709 116.453Z" fill="#C8C8C8"/>
<path d="M115.709 67.8345L164.327 116.453Z" fill="#C8C8C8"/>
<path fill-rule="evenodd" clip-rule="evenodd" d="M151.821 112H130.607L120 93.9997L130.607 76H151.821L162.429 93.9997L151.821 112ZM130.607 112H151.821L161.368 93.9997L151.821 76H130.607L121.061 93.9997L130.607 112Z" fill="#C8C8C8"/>
</g>
<defs>
<filter id="filter0_f_10_20828" x="-91.6194" y="-219.168" width="411.671" height="532.134" filterUnits="userSpaceOnUse" color-interpolation-filters="sRGB">
<feFlood flood-opacity="0" result="BackgroundImageFix"/>
<feBlend mode="normal" in="SourceGraphic" in2="BackgroundImageFix" result="shape"/>
<feGaussianBlur stdDeviation="33.0521" result="effect1_foregroundBlur_10_20828"/>
</filter>
<filter id="filter1_f_10_20828" x="-128.974" y="-216.974" width="620.239" height="585.875" filterUnits="userSpaceOnUse" color-interpolation-filters="sRGB">
<feFlood flood-opacity="0" result="BackgroundImageFix"/>
<feBlend mode="normal" in="SourceGraphic" in2="BackgroundImageFix" result="shape"/>
<feGaussianBlur stdDeviation="41.4871" result="effect1_foregroundBlur_10_20828"/>
</filter>
<filter id="filter2_f_10_20828" x="-147.795" y="-237.918" width="376.462" height="486.623" filterUnits="userSpaceOnUse" color-interpolation-filters="sRGB">
<feFlood flood-opacity="0" result="BackgroundImageFix"/>
<feBlend mode="normal" in="SourceGraphic" in2="BackgroundImageFix" result="shape"/>
<feGaussianBlur stdDeviation="30.2253" result="effect1_foregroundBlur_10_20828"/>
</filter>
<linearGradient id="paint0_linear_10_20828" x1="87.2116" y1="81.9871" x2="164.281" y2="36.0469" gradientUnits="userSpaceOnUse">
<stop stop-color="#6E6EB8"/>
<stop offset="1" stop-color="#335FFF" stop-opacity="0"/>
</linearGradient>
<linearGradient id="paint1_linear_10_20828" x1="154.238" y1="138.052" x2="231.853" y2="56.4479" gradientUnits="userSpaceOnUse">
<stop stop-color="#6E6EB8"/>
<stop offset="1" stop-color="#335FFF" stop-opacity="0"/>
</linearGradient>
<linearGradient id="paint2_linear_10_20828" x1="138.268" y1="-57.0638" x2="137.142" y2="161.524" gradientUnits="userSpaceOnUse">
<stop stop-color="#B5D3FD" stop-opacity="0"/>
<stop offset="0.457113" stop-color="#B5D3FD"/>
<stop offset="0.757594" stop-color="#B5D3FD" stop-opacity="0"/>
</linearGradient>
<linearGradient id="paint3_linear_10_20828" x1="15.7406" y1="37.4798" x2="86.2186" y2="-4.5313" gradientUnits="userSpaceOnUse">
<stop stop-color="#6E6EB8"/>
<stop offset="1" stop-color="#335FFF" stop-opacity="0"/>
</linearGradient>
<linearGradient id="paint4_linear_10_20828" x1="127.997" y1="93.8591" x2="153.711" y2="93.8591" gradientUnits="userSpaceOnUse">
<stop stop-color="#4F39F6"/>
<stop offset="1" stop-color="#0092B8"/>
</linearGradient>
<linearGradient id="paint5_linear_10_20828" x1="96.1439" y1="73.9873" x2="96.1439" y2="111.709" gradientUnits="userSpaceOnUse">
<stop stop-color="#09C2DB"/>
<stop offset="1" stop-color="#2D68FF"/>
</linearGradient>
<linearGradient id="paint6_linear_10_20828" x1="184.143" y1="73.9883" x2="184.143" y2="111.709" gradientUnits="userSpaceOnUse">
<stop stop-color="#09C2DB"/>
<stop offset="1" stop-color="#2D68FF"/>
</linearGradient>
<linearGradient id="paint7_linear_10_20828" x1="75.0186" y1="51.9302" x2="12.8717" y2="51.9302" gradientUnits="userSpaceOnUse">
<stop stop-color="#C8C8C8"/>
<stop offset="1"/>
</linearGradient>
<linearGradient id="paint8_linear_10_20828" x1="202.981" y1="51.9302" x2="265.128" y2="51.9302" gradientUnits="userSpaceOnUse">
<stop stop-color="#C8C8C8"/>
<stop offset="1"/>
</linearGradient>
<clipPath id="clip0_10_20828">
<rect width="278" height="185" fill="white"/>
</clipPath>
</defs>
</svg>
