<svg width="124" height="50" viewBox="0 0 124 50" fill="none" xmlns="http://www.w3.org/2000/svg">
<path opacity="0.9" d="M12 4.79911C20 7.99911 20 12.7991 12 19.1991C4 25.5991 4 31.9991 12 38.3991C20 41.5991 20 44.7991 12 47.9991" stroke="url(#paint0_linear_13_30966)" stroke-width="3.42857"/>
<path opacity="0.9" d="M36 4.79911C28 7.99911 28 12.7991 36 19.1991C44 25.5991 44 31.9991 36 38.3991C28 41.5991 28 44.7991 36 47.9991" stroke="url(#paint1_linear_13_30966)" stroke-width="3.42857"/>
<path opacity="0.6" d="M17.75 7.20089H30.2438" stroke="url(#paint2_linear_13_30966)" stroke-width="2.28571"/>
<path opacity="0.6" d="M23.9732 12H24.0333" stroke="url(#paint3_linear_13_30966)" stroke-width="0.48"/>
<path opacity="0.6" d="M19.1786 16.7991H28.8152" stroke="url(#paint4_linear_13_30966)" stroke-width="2.28571"/>
<path opacity="0.6" d="M7.78571 21.5982H40.2045" stroke="url(#paint5_linear_13_30966)" stroke-width="2.28571"/>
<path opacity="0.6" d="M0.26786 26.4018H47.7286" stroke="url(#paint6_linear_13_30966)" stroke-width="2.28571"/>
<path opacity="0.6" d="M3.53571 31.2009H44.4687" stroke="url(#paint7_linear_13_30966)" stroke-width="2.28571"/>
<path opacity="0.6" d="M14.5804 36H33.4175" stroke="url(#paint8_linear_13_30966)" stroke-width="2.28571"/>
<path opacity="0.6" d="M22.8571 42.2857H25.1429" stroke="url(#paint9_linear_13_30966)" stroke-width="2.28571"/>
<path opacity="0.7" d="M5.71428 10.2857C6.34547 10.2857 6.85714 9.77404 6.85714 9.14286C6.85714 8.51167 6.34547 8 5.71428 8C5.0831 8 4.57143 8.51167 4.57143 9.14286C4.57143 9.77404 5.0831 10.2857 5.71428 10.2857Z" fill="url(#paint10_linear_13_30966)"/>
<path opacity="0.8" d="M42.2857 13.7143C42.9169 13.7143 43.4286 13.2026 43.4286 12.5714C43.4286 11.9402 42.9169 11.4286 42.2857 11.4286C41.6545 11.4286 41.1429 11.9402 41.1429 12.5714C41.1429 13.2026 41.6545 13.7143 42.2857 13.7143Z" fill="url(#paint11_linear_13_30966)"/>
<path opacity="0.7" d="M44.5714 36.5714C45.2026 36.5714 45.7143 36.0598 45.7143 35.4286C45.7143 34.7974 45.2026 34.2857 44.5714 34.2857C43.9402 34.2857 43.4286 34.7974 43.4286 35.4286C43.4286 36.0598 43.9402 36.5714 44.5714 36.5714Z" fill="url(#paint12_linear_13_30966)"/>
<path d="M59.5655 21V7.34663H56.3913V4.69422H65.9791L65.6748 7.34663H62.7397V21H59.5655ZM66.276 21V4.84641L69.3198 4.47681V10.9556C69.5807 10.115 69.9865 9.50624 70.5373 9.12939C71.1025 8.73806 71.7403 8.54239 72.4505 8.54239C73.3056 8.54239 73.9869 8.83951 74.4941 9.43377C75.0159 10.0135 75.2768 10.9411 75.2768 12.2166V21H72.2331V13.4341C72.2331 12.5645 72.1389 11.9702 71.9504 11.6514C71.762 11.318 71.4577 11.1513 71.0373 11.1513C70.53 11.1513 70.117 11.4992 69.7981 12.1949C69.4792 12.8761 69.3198 13.7312 69.3198 14.7603V21H66.276ZM80.4031 21.2826C79.3161 21.2826 78.4319 21.0072 77.7507 20.4565C77.084 19.8912 76.5912 19.1375 76.2723 18.1954C75.968 17.2388 75.8158 16.1735 75.8158 14.9995C75.8158 13.753 75.9969 12.6514 76.3593 11.6948C76.7216 10.7237 77.2434 9.97005 77.9246 9.43377C78.6059 8.883 79.4248 8.60761 80.3814 8.60761C81.367 8.60761 82.1714 8.83227 82.7946 9.28158C83.4179 9.7309 83.8744 10.3396 84.1643 11.1078C84.4542 11.8615 84.5991 12.7239 84.5991 13.695C84.5991 14.3617 84.5774 15.0647 84.5339 15.8039H78.903C78.9175 16.3112 78.9682 16.8112 79.0552 17.304C79.1421 17.7968 79.2943 18.2027 79.5117 18.5215C79.7292 18.8259 80.0408 18.9781 80.4466 18.9781C80.9394 18.9781 81.2728 18.7824 81.4467 18.3911C81.6351 17.9997 81.7583 17.5649 81.8163 17.0866L84.5122 17.6519C84.3093 18.7824 83.8382 19.6738 83.099 20.326C82.3743 20.9638 81.4757 21.2826 80.4031 21.2826ZM78.903 13.8689H81.7946V13.5646C81.7946 13.1587 81.7583 12.7529 81.6858 12.3471C81.6134 11.9267 81.4757 11.5789 81.2728 11.3035C81.0843 11.0136 80.809 10.8687 80.4466 10.8687C80.0698 10.8687 79.7726 11.0209 79.5552 11.3252C79.3378 11.6151 79.1784 11.992 79.0769 12.4558C78.99 12.9196 78.932 13.3906 78.903 13.8689ZM61.5222 43.3479C60.5946 43.3479 59.7612 43.1739 59.022 42.8261C58.2828 42.4637 57.703 41.9202 57.2827 41.1955C56.8624 40.4563 56.6522 39.5214 56.6522 38.3909L59.522 38.0648C59.522 38.862 59.696 39.5069 60.0438 39.9997C60.4062 40.4925 60.9207 40.7389 61.5874 40.7389C62.1382 40.7389 62.5513 40.5795 62.8267 40.2606C63.1021 39.9273 63.2398 39.4852 63.2398 38.9344C63.2398 38.3402 63.0876 37.8764 62.7832 37.543C62.4788 37.2096 62.0875 36.9053 61.6092 36.6299L59.6308 35.4776C58.8626 35.0283 58.2103 34.434 57.6741 33.6948C57.1523 32.9411 56.8914 32.0353 56.8914 30.9772C56.8914 30.1076 57.0798 29.3321 57.4566 28.6509C57.848 27.9552 58.406 27.4044 59.1307 26.9986C59.8699 26.5928 60.7468 26.3898 61.7614 26.3898C63.1238 26.3898 64.2181 26.7812 65.0443 27.5639C65.8849 28.3465 66.3197 29.5206 66.3487 31.0859L63.4789 31.7164C63.4789 29.9046 62.8847 28.9988 61.6962 28.9988C61.2034 28.9988 60.812 29.151 60.5221 29.4553C60.2467 29.7597 60.1091 30.18 60.1091 30.7163C60.1091 31.2381 60.2395 31.6657 60.5004 31.999C60.7758 32.3324 61.1599 32.644 61.6527 32.9339L63.6094 34.1079C64.508 34.6442 65.211 35.2819 65.7182 36.0211C66.24 36.7458 66.5009 37.6445 66.5009 38.717C66.5009 39.6881 66.2908 40.5215 65.8704 41.2172C65.4501 41.9129 64.8631 42.442 64.1094 42.8043C63.3702 43.1667 62.5078 43.3479 61.5222 43.3479ZM67.189 46.8047V31.0207L70.0805 30.6511V32.2164C70.3125 31.7092 70.6458 31.3033 71.0806 30.9989C71.5155 30.6946 72.0517 30.5424 72.6895 30.5424C73.936 30.5424 74.8491 31.1221 75.4288 32.2817C76.0231 33.4267 76.3202 34.9776 76.3202 36.9343C76.3202 38.1228 76.1898 39.1953 75.9289 40.1519C75.668 41.1085 75.2549 41.8695 74.6896 42.4347C74.1389 43 73.4214 43.2826 72.5373 43.2826C71.972 43.2826 71.501 43.1594 71.1241 42.913C70.7473 42.6666 70.4501 42.3478 70.2327 41.9564V46.4133L67.189 46.8047ZM71.6242 40.9346C72.2039 40.9346 72.6098 40.5723 72.8417 39.8475C73.0881 39.1228 73.2113 38.159 73.2113 36.956C73.2113 35.7385 73.0881 34.7601 72.8417 34.021C72.6098 33.2673 72.2039 32.8904 71.6242 32.8904C71.1024 32.8904 70.74 33.1731 70.5371 33.7383C70.3342 34.3036 70.2327 35.0573 70.2327 35.9994V37.8474C70.2327 38.7605 70.3342 39.5069 70.5371 40.0867C70.74 40.652 71.1024 40.9346 71.6242 40.9346ZM77.1221 43V31.0424L80.1658 30.6728V43H77.1221ZM77.2525 29.4988V26.6073H80.0354V29.4988H77.2525ZM81.2994 43V31.1077L84.2127 30.7598V33.7818C84.3867 32.8397 84.7345 32.0643 85.2563 31.4555C85.7926 30.8468 86.3941 30.5424 87.0608 30.5424C87.6261 30.5424 88.0464 30.6801 88.3218 30.9555L87.6696 33.9122C87.3652 33.6948 86.9956 33.5861 86.5608 33.5861C85.9375 33.5861 85.4085 33.905 84.9737 34.5427C84.5533 35.1805 84.3432 36.0356 84.3432 37.1082V43H81.2994ZM90.5637 43.2609C89.694 43.2609 88.9983 42.9565 88.4765 42.3478C87.9547 41.7245 87.6938 40.8694 87.6938 39.7823C87.6938 38.8257 87.9257 38.0503 88.3896 37.456C88.8679 36.8473 89.5128 36.4052 90.3245 36.1298C91.1362 35.84 92.0565 35.695 93.0856 35.695V34.5862C93.0856 34.1369 92.9987 33.7528 92.8247 33.4339C92.6653 33.1006 92.3609 32.9339 91.9116 32.9339C91.5348 32.9339 91.2521 33.1006 91.0637 33.4339C90.8753 33.7528 90.7521 34.1369 90.6941 34.5862L87.9982 33.9992C88.1866 32.8397 88.6432 31.9773 89.3679 31.412C90.1071 30.8323 90.984 30.5424 91.9986 30.5424C93.419 30.5424 94.4626 30.9265 95.1293 31.6947C95.796 32.4628 96.1294 33.5354 96.1294 34.9123V39.7823C96.1294 40.3621 96.1584 40.9201 96.2163 41.4564C96.2888 41.9927 96.4048 42.5072 96.5642 43H93.6074C93.4045 42.4782 93.2958 41.9492 93.2813 41.4129C93.0639 41.9347 92.7305 42.3768 92.2812 42.7391C91.8464 43.087 91.2739 43.2609 90.5637 43.2609ZM90.7158 39.3475C90.7158 39.7968 90.8101 40.1592 90.9985 40.4346C91.2014 40.7099 91.4985 40.8476 91.8899 40.8476C92.2522 40.8476 92.5421 40.7244 92.7595 40.478C92.9769 40.2316 93.0856 39.9128 93.0856 39.5214V37.3256C92.3319 37.3256 91.7449 37.5213 91.3246 37.9126C90.9188 38.2894 90.7158 38.7677 90.7158 39.3475ZM97.1721 43V26.8682L100.216 26.4768V43H97.1721ZM112.086 43.3044L111.39 40.0215H107.89L107.39 43H104.237L107.563 26.8899L111.499 26.4333L115.282 43L112.086 43.3044ZM109.52 29.8902L109.346 30.9555L108.15 37.3691H110.977L109.716 30.9337L109.52 29.8902ZM115.827 43V26.6942H119.023V43H115.827Z" fill="white"/>
<defs>
<linearGradient id="paint0_linear_13_30966" x1="6" y1="4.79911" x2="2234.08" y2="623.71" gradientUnits="userSpaceOnUse">
<stop offset="0.5" stop-color="#8B5CF6"/>
<stop offset="1" stop-color="#6366F1"/>
<stop offset="1" stop-color="#06B6D4"/>
</linearGradient>
<linearGradient id="paint1_linear_13_30966" x1="1230" y1="4.79911" x2="-998.08" y2="623.71" gradientUnits="userSpaceOnUse">
<stop stop-color="#10B981"/>
<stop offset="0.5" stop-color="#06B6D4"/>
<stop offset="1" stop-color="#8B5CF6" stop-opacity="0.8"/>
</linearGradient>
<linearGradient id="paint2_linear_13_30966" x1="nan" y1="nan" x2="nan" y2="nan" gradientUnits="userSpaceOnUse">
<stop stop-color="#6366F1" stop-opacity="0.8"/>
<stop offset="0.5" stop-color="#8B5CF6" stop-opacity="0.6"/>
<stop offset="1" stop-color="#06B6D4" stop-opacity="0.8"/>
</linearGradient>
<linearGradient id="paint3_linear_13_30966" x1="nan" y1="nan" x2="nan" y2="nan" gradientUnits="userSpaceOnUse">
<stop stop-color="#6366F1" stop-opacity="0.8"/>
<stop offset="0.5" stop-color="#8B5CF6" stop-opacity="0.6"/>
<stop offset="1" stop-color="#06B6D4" stop-opacity="0.8"/>
</linearGradient>
<linearGradient id="paint4_linear_13_30966" x1="nan" y1="nan" x2="nan" y2="nan" gradientUnits="userSpaceOnUse">
<stop stop-color="#6366F1" stop-opacity="0.8"/>
<stop offset="0.5" stop-color="#8B5CF6" stop-opacity="0.6"/>
<stop offset="1" stop-color="#06B6D4" stop-opacity="0.8"/>
</linearGradient>
<linearGradient id="paint5_linear_13_30966" x1="nan" y1="nan" x2="nan" y2="nan" gradientUnits="userSpaceOnUse">
<stop stop-color="#6366F1" stop-opacity="0.8"/>
<stop offset="0.5" stop-color="#8B5CF6" stop-opacity="0.6"/>
<stop offset="1" stop-color="#06B6D4" stop-opacity="0.8"/>
</linearGradient>
<linearGradient id="paint6_linear_13_30966" x1="nan" y1="nan" x2="nan" y2="nan" gradientUnits="userSpaceOnUse">
<stop stop-color="#6366F1" stop-opacity="0.8"/>
<stop offset="0.5" stop-color="#8B5CF6" stop-opacity="0.6"/>
<stop offset="1" stop-color="#06B6D4" stop-opacity="0.8"/>
</linearGradient>
<linearGradient id="paint7_linear_13_30966" x1="nan" y1="nan" x2="nan" y2="nan" gradientUnits="userSpaceOnUse">
<stop stop-color="#6366F1" stop-opacity="0.8"/>
<stop offset="0.5" stop-color="#8B5CF6" stop-opacity="0.6"/>
<stop offset="1" stop-color="#06B6D4" stop-opacity="0.8"/>
</linearGradient>
<linearGradient id="paint8_linear_13_30966" x1="nan" y1="nan" x2="nan" y2="nan" gradientUnits="userSpaceOnUse">
<stop stop-color="#6366F1" stop-opacity="0.8"/>
<stop offset="0.5" stop-color="#8B5CF6" stop-opacity="0.6"/>
<stop offset="1" stop-color="#06B6D4" stop-opacity="0.8"/>
</linearGradient>
<linearGradient id="paint9_linear_13_30966" x1="nan" y1="nan" x2="nan" y2="nan" gradientUnits="userSpaceOnUse">
<stop stop-color="#6366F1" stop-opacity="0.8"/>
<stop offset="0.5" stop-color="#8B5CF6" stop-opacity="0.6"/>
<stop offset="1" stop-color="#06B6D4" stop-opacity="0.8"/>
</linearGradient>
<linearGradient id="paint10_linear_13_30966" x1="4.57143" y1="8" x2="233.143" y2="236.571" gradientUnits="userSpaceOnUse">
<stop offset="0.5" stop-color="#8B5CF6"/>
<stop offset="1" stop-color="#6366F1"/>
<stop offset="1" stop-color="#06B6D4"/>
</linearGradient>
<linearGradient id="paint11_linear_13_30966" x1="269.714" y1="11.4286" x2="41.1429" y2="240" gradientUnits="userSpaceOnUse">
<stop stop-color="#10B981"/>
<stop offset="0.5" stop-color="#06B6D4"/>
<stop offset="1" stop-color="#8B5CF6" stop-opacity="0.8"/>
</linearGradient>
<linearGradient id="paint12_linear_13_30966" x1="272" y1="34.2857" x2="43.4286" y2="262.857" gradientUnits="userSpaceOnUse">
<stop stop-color="#10B981"/>
<stop offset="0.5" stop-color="#06B6D4"/>
<stop offset="1" stop-color="#8B5CF6" stop-opacity="0.8"/>
</linearGradient>
</defs>
</svg>
